<?xml version="1.0" encoding="UTF-8"?>
<svg id="katman_1" xmlns="http://www.w3.org/2000/svg" version="1.1" viewBox="0 0 500 139.37">
  <!-- Generator: Adobe Illustrator 30.1.0, SVG Export Plug-In . SVG Version: 2.1.1 Build 136)  -->
  <defs>
    <style>
      .st0 {
        fill: #ff6100;
      }
    </style>
  </defs>
  <path class="st0" d="M185.97,139.37l13.51-33.88-26.57-69.95c-.36-1.09-.33-1.96.11-2.6.43-.66,1.23-1,2.37-1h17.08c1.78,0,2.99.83,3.6,2.49l15.24,46.48,8.38-25.34c2.91-8.65,7.03-15.01,12.37-19.07,5.33-4.08,11.99-6.13,19.98-6.13l-32.5,84.46c-3.27,8.39-7.6,14.59-12.98,18.57-5.39,3.98-12.25,5.97-20.6,5.97Z"/>
  <path class="st0" d="M316.64,43.04c3.77-7.5,10.23-11.72,19.37-12.67v71.71c-9.14-.95-15.6-5.19-19.37-12.75-3.01,4.24-6.88,7.58-11.6,10.03-4.7,2.42-9.98,3.64-15.85,3.64-5.03,0-9.65-.9-13.86-2.68-4.19-1.78-7.8-4.31-10.83-7.58-3.01-3.26-5.35-7.14-7.01-11.64-1.67-4.52-2.49-9.49-2.49-14.93s.82-10.35,2.49-14.82c1.66-4.49,3.99-8.37,7.01-11.64,3.03-3.26,6.64-5.79,10.83-7.58,4.21-1.78,8.82-2.68,13.86-2.68,5.87,0,11.15,1.22,15.85,3.64,4.72,2.4,8.59,5.72,11.6,9.95ZM296.35,84.35c3.16,0,5.97-.77,8.42-2.3,2.47-1.53,4.4-3.65,5.78-6.36,1.4-2.73,2.11-5.86,2.11-9.38s-.71-6.64-2.11-9.38c-1.38-2.73-3.31-4.84-5.78-6.36-2.45-1.53-5.26-2.3-8.42-2.3s-5.99.77-8.46,2.3c-2.45,1.51-4.38,3.63-5.78,6.36-1.38,2.74-2.07,5.86-2.07,9.38s.69,6.65,2.07,9.38c1.4,2.71,3.33,4.82,5.78,6.36,2.47,1.53,5.29,2.3,8.46,2.3Z"/>
  <path class="st0" d="M391.8,100.51h-41.04c-1.76,0-2.64-.67-2.64-2.03,0-.56.2-1.12.61-1.68l33.42-47.13h-29.86c-2.07,0-3.1-1.03-3.1-3.1v-11.52c0-2.07,1.03-3.1,3.1-3.1h61.1c1.76,0,2.64.68,2.64,2.03,0,.56-.21,1.14-.61,1.72l-30.48,46.33h34.84c-1.05,3.98-2.67,7.35-4.86,10.11-2.2,2.74-5.19,4.81-8.96,6.24-3.75,1.44-8.48,2.14-14.17,2.14Z"/>
  <path class="st0" d="M479.79,31.94h17.11c2.07,0,3.1,1.03,3.1,3.1v67.04c-9.11-.95-15.62-5.25-19.53-12.9-4.98,9.22-12.93,13.82-23.85,13.82-8.6,0-15.22-2.68-19.83-8.04-4.59-5.36-6.89-13.09-6.89-23.2v-36.72c0-2.07,1.03-3.1,3.1-3.1h17.08c2.09,0,3.14,1.03,3.14,3.1v36.72c0,3.93.88,7.03,2.64,9.27,1.76,2.22,4.19,3.33,7.31,3.33,2.57,0,4.88-.71,6.93-2.14,2.04-1.43,3.65-3.39,4.82-5.9,1.17-2.53,1.76-5.4,1.76-8.61v-32.66c0-2.07,1.03-3.1,3.1-3.1Z"/>
  <path class="st0" d="M67.08,0C30.03,0,0,30.03,0,67.08s30.03,67.08,67.08,67.08,67.08-30.03,67.08-67.08S104.12,0,67.08,0ZM51.9,62.31c0-2.6.62-4.92,1.88-6.93,1.27-2.02,3.02-3.62,5.25-4.79,2.24-1.15,4.82-1.72,7.73-1.72s5.44.57,7.66,1.72c2.24,1.17,3.99,2.77,5.25,4.79,1.27,2.01,1.91,4.33,1.91,6.93s-.64,4.91-1.91,6.93c-1.25,2.01-3.01,3.6-5.25,4.75-2.22,1.17-4.78,1.76-7.66,1.76s-5.49-.59-7.73-1.76c-2.22-1.15-3.97-2.74-5.25-4.75-1.25-2.02-1.88-4.33-1.88-6.93ZM89.07,114.83v-19.94h7.2c-.77-7.48-4.24-12.78-10.41-15.89,3.49-2.48,6.22-5.66,8.19-9.53,1.99-3.89,2.99-8.23,2.99-13.06,0-4.13-.75-7.93-2.22-11.37-1.45-3.45-3.54-6.42-6.24-8.92-2.68-2.48-5.86-4.4-9.53-5.78-3.68-1.36-7.73-2.03-12.17-2.03s-8.57.67-12.29,2.03c-3.7,1.38-6.89,3.3-9.57,5.78-2.68,2.5-4.77,5.47-6.24,8.92-1.45,3.45-2.18,7.24-2.18,11.37,0,4.82,1,9.17,2.99,13.06,2.01,3.88,4.76,7.05,8.23,9.53-6.2,3.11-9.69,8.4-10.45,15.89h7.45v19.81c-17.9-8.39-30.3-26.55-30.3-47.62,0-29.04,23.54-52.57,52.57-52.57s52.57,23.54,52.57,52.57c0,21.18-12.53,39.42-30.58,47.75Z"/>
</svg>