<?xml version="1.0" encoding="UTF-8"?>
<svg id="katman_1" xmlns="http://www.w3.org/2000/svg" version="1.1" viewBox="0 0 134.16 134.16">
  <!-- Generator: Adobe Illustrator 30.1.0, SVG Export Plug-In . SVG Version: 2.1.1 Build 136)  -->
  <defs>
    <style>
      .st0 {
        fill: #ff6100;
      }
    </style>
  </defs>
  <path class="st0" d="M67.08,0C30.03,0,0,30.03,0,67.08s30.03,67.08,67.08,67.08,67.08-30.03,67.08-67.08S104.12,0,67.08,0ZM51.9,62.31c0-2.6.62-4.92,1.88-6.93,1.27-2.02,3.02-3.62,5.25-4.79,2.24-1.15,4.82-1.72,7.73-1.72s5.44.57,7.66,1.72c2.24,1.17,3.99,2.77,5.25,4.79,1.27,2.01,1.91,4.33,1.91,6.93s-.64,4.91-1.91,6.93c-1.25,2.01-3.01,3.6-5.25,4.75-2.22,1.17-4.78,1.76-7.66,1.76s-5.49-.59-7.73-1.76c-2.22-1.15-3.97-2.74-5.25-4.75-1.25-2.02-1.88-4.33-1.88-6.93ZM89.07,114.83v-19.94h7.2c-.77-7.48-4.24-12.78-10.41-15.89,3.49-2.48,6.22-5.66,8.19-9.53,1.99-3.89,2.99-8.23,2.99-13.06,0-4.13-.75-7.93-2.22-11.37-1.45-3.45-3.54-6.42-6.24-8.92-2.68-2.48-5.86-4.4-9.53-5.78-3.68-1.36-7.73-2.03-12.17-2.03s-8.57.67-12.29,2.03c-3.7,1.38-6.89,3.3-9.57,5.78-2.68,2.5-4.77,5.47-6.24,8.92-1.45,3.45-2.18,7.24-2.18,11.37,0,4.82,1,9.17,2.99,13.06,2.01,3.88,4.76,7.05,8.23,9.53-6.2,3.11-9.69,8.4-10.45,15.89h7.45v19.81c-17.9-8.39-30.3-26.55-30.3-47.62,0-29.04,23.54-52.57,52.57-52.57s52.57,23.54,52.57,52.57c0,21.18-12.53,39.42-30.58,47.75h-.01Z"/>
</svg>